<svg width="16" height="16" viewBox="0 0 16 16" fill="none" xmlns="http://www.w3.org/2000/svg">
<g clip-path="url(#clip0_26_412)">
<path d="M3.64204 2.95532C4.85175 1.90709 6.39937 1.33109 8.00004 1.33332C11.682 1.33332 14.6667 4.31799 14.6667 7.99999C14.6667 9.42399 14.22 10.744 13.46 11.8267L11.3334 7.99999H13.3334C13.3335 6.9544 13.0262 5.93186 12.4498 5.05949C11.8734 4.18712 11.0533 3.50343 10.0915 3.0934C9.12966 2.68338 8.06852 2.56512 7.04001 2.75333C6.01151 2.94154 5.06101 3.42792 4.30671 4.15199L3.64204 2.95532ZM12.358 13.0447C11.1483 14.0929 9.60072 14.6689 8.00004 14.6667C4.31804 14.6667 1.33337 11.682 1.33337 7.99999C1.33337 6.57599 1.78004 5.25599 2.54004 4.17332L4.66671 7.99999H2.66671C2.66662 9.04557 2.97388 10.0681 3.55027 10.9405C4.12665 11.8128 4.94675 12.4965 5.90859 12.9066C6.87042 13.3166 7.93156 13.4349 8.96007 13.2466C9.98858 13.0584 10.9391 12.5721 11.6934 11.848L12.358 13.0447Z" fill="#0075FF"/>
</g>
<defs>
<clipPath id="clip0_26_412">
<rect width="16" height="16" fill="white"/>
</clipPath>
</defs>
</svg>
