<svg width="24" height="24" viewBox="0 0 24 24" fill="none" xmlns="http://www.w3.org/2000/svg">
<path d="M5 11H13V13H5V16L0 12L5 8.00003V11ZM4 18H6.708C7.86269 19.0184 9.28669 19.6819 10.8091 19.911C12.3316 20.1401 13.8878 19.925 15.291 19.2915C16.6942 18.6581 17.8849 17.6332 18.7201 16.3398C19.5553 15.0465 19.9995 13.5396 19.9995 12C19.9995 10.4605 19.5553 8.95358 18.7201 7.66022C17.8849 6.36686 16.6942 5.34197 15.291 4.70853C13.8878 4.07509 12.3316 3.86001 10.8091 4.08909C9.28669 4.31818 7.86269 4.9817 6.708 6.00003H4C4.93066 4.75721 6.13833 3.74854 7.52707 3.05418C8.91581 2.35981 10.4473 1.99887 12 2.00003C17.523 2.00003 22 6.47703 22 12C22 17.523 17.523 22 12 22C10.4473 22.0012 8.91581 21.6403 7.52707 20.9459C6.13833 20.2515 4.93066 19.2429 4 18Z" fill="#8994AF"/>
</svg>
