<svg width="74" height="74" viewBox="0 0 74 74" fill="none" xmlns="http://www.w3.org/2000/svg">
<g clip-path="url(#clip0_42_10490)">
<path d="M37.0003 67.8333C19.9711 67.8333 6.16699 54.0292 6.16699 37C6.16699 19.9707 19.9711 6.16663 37.0003 6.16663C54.0296 6.16663 67.8337 19.9707 67.8337 37C67.8337 54.0292 54.0296 67.8333 37.0003 67.8333ZM37.0003 61.6666C43.5423 61.6666 49.8164 59.0678 54.4423 54.4419C59.0682 49.816 61.667 43.542 61.667 37C61.667 30.458 59.0682 24.1839 54.4423 19.558C49.8164 14.9321 43.5423 12.3333 37.0003 12.3333C30.4583 12.3333 24.1843 14.9321 19.5584 19.558C14.9325 24.1839 12.3337 30.458 12.3337 37C12.3337 43.542 14.9325 49.816 19.5584 54.4419C24.1843 59.0678 30.4583 61.6666 37.0003 61.6666V61.6666ZM33.9262 49.3333L20.8437 36.2507L25.2035 31.8909L33.9262 40.6136L51.3656 23.1712L55.7285 27.531L33.9262 49.3333Z" fill="#3F9068"/>
</g>
<defs>
<clipPath id="clip0_42_10490">
<rect width="74" height="74" fill="white"/>
</clipPath>
</defs>
</svg>
