<svg width="24" height="24" viewBox="0 0 24 24" fill="none" xmlns="http://www.w3.org/2000/svg">
  <path d="M17.882 19.297C16.1232 20.4127 14.082 21.0033 12 21C6.608 21 2.122 17.12 1.181 12C1.61059 9.67072 2.78257 7.54295 4.521 5.934L1.392 2.808L2.807 1.393L22.606 21.192L21.191 22.607L17.881 19.297H17.882ZM5.935 7.35C4.576 8.587 3.629 10.178 3.155 12C4.078 16.054 7.808 19 12 19C13.357 19 14.651 18.706 15.823 18.17L14.001 16.348C13.3984 16.6971 12.7102 16.877 12.012 16.87C9.533 16.87 7.522 14.859 7.522 12.38C7.52901 11.6818 7.70797 10.9965 8.043 10.385L5.935 7.35ZM12 5C16.2 5 19.931 7.946 20.854 12C20.478 13.733 19.573 15.275 18.311 16.452L16.865 15.006C17.797 14.182 18.457 13.116 18.751 11.906C17.867 7.947 14.202 5.06 10.155 5.06C9.395 5.06 8.657 5.172 7.956 5.378L6.378 3.8C7.917 3.294 9.574 3 12.006 3L12 5ZM14.022 11.906C14.0251 11.2738 13.8978 10.6478 13.6481 10.0689C13.3985 9.49003 13.0323 8.97089 12.5735 8.54396C12.1147 8.11704 11.5732 7.7913 10.9832 7.58769C10.3933 7.38408 9.76764 7.30729 9.146 7.362L14.022 12.238V11.906V11.906Z" fill="#888EA0"/>
</svg>