<svg width="24" height="24" viewBox="0 0 24 24" fill="none" xmlns="http://www.w3.org/2000/svg">
  <path d="M12 3C17.392 3 21.878 6.88 22.819 12C21.879 17.12 17.392 21 12 21C6.608 21 2.122 17.12 1.181 12C2.121 6.88 6.608 3 12 3ZM12 19C16.2 19 19.931 16.054 20.854 12C19.93 7.946 16.2 5 12 5C7.8 5 4.069 7.946 3.146 12C4.07 16.054 7.8 19 12 19ZM12 16.5C9.519 16.5 7.5 14.481 7.5 12C7.5 9.519 9.519 7.5 12 7.5C14.481 7.5 16.5 9.519 16.5 12C16.5 14.481 14.481 16.5 12 16.5ZM12 14.5C13.378 14.5 14.5 13.378 14.5 12C14.5 10.622 13.378 9.5 12 9.5C10.622 9.5 9.5 10.622 9.5 12C9.5 13.378 10.622 14.5 12 14.5Z" fill="#888EA0"/>
</svg>