<svg width="533" height="591" viewBox="0 0 533 591" fill="none" xmlns="http://www.w3.org/2000/svg">
<path d="M155.032 113.195L240.626 140.206C251.21 143.547 262.364 141.445 270.549 134.57L311.895 99.8479C327.973 86.346 352.938 92.5239 363.353 112.583L399.761 182.708C406.26 195.225 419.032 203.04 432.305 202.62L460.973 201.714C489.201 200.822 507.879 234.576 492.071 257.909L395.629 400.26C390.262 408.184 388.583 418.349 391.021 428.172L415.429 526.561C422.403 554.677 396.078 576.989 370.486 564.656L318.845 539.772C298.814 530.12 276.547 541.758 273.212 563.624C268.934 591.667 235.307 600.505 215.988 578.66L192.342 551.922C182.707 541.028 168.015 536.938 155.295 541.611L145.84 545.083C117.967 555.324 90.0237 524.183 101.987 496.21L124.717 443.061C130.929 428.535 126.326 410.805 113.63 400.365L31.8977 333.155C9.73269 314.928 15.1716 279.577 41.2248 272.528L115.326 252.476C134.02 247.417 143.491 226.505 135.831 207.204L116.298 157.997C105.572 130.971 128.246 104.743 155.032 113.195Z" fill="#EBEEF7"/>
<path d="M431.932 77.7588C429.565 77.7588 427.596 79.6794 427.165 82.2183L355.729 93.5063C355.139 91.2165 353.277 89.5405 351.067 89.5405C348.383 89.5405 346.209 92.0069 346.209 95.0464C346.209 95.5877 346.281 96.1109 346.409 96.6046L273.011 136.654C272.12 135.435 270.775 134.659 269.27 134.659C267.694 134.659 266.295 135.515 265.408 136.835L193.246 114.533C193.086 111.657 190.982 109.378 188.403 109.378C185.719 109.378 183.545 111.845 183.545 114.884C183.545 115.258 183.579 115.625 183.641 115.978L110.702 164.362C109.851 163.531 108.746 163.024 107.533 163.024C104.85 163.024 102.676 165.49 102.676 168.529C102.676 171.571 104.852 174.035 107.533 174.035C110.217 174.035 112.391 171.569 112.391 168.529C112.391 168.156 112.357 167.791 112.295 167.435L185.23 119.052C186.081 119.883 187.186 120.39 188.399 120.39C190.071 120.39 191.546 119.432 192.419 117.973L264.409 140.223C264.437 143.236 266.599 145.67 269.264 145.67C271.948 145.67 274.122 143.204 274.122 140.164C274.122 140.11 274.116 140.058 274.114 140.006L348.265 99.5444C349.057 100.176 350.02 100.552 351.061 100.552C353.093 100.552 354.831 99.1367 355.557 97.13L427.596 85.7492C428.398 87.5407 430.034 88.7705 431.928 88.7705C434.612 88.7705 436.786 86.3041 436.786 83.2646C436.79 80.2252 434.616 77.7588 431.932 77.7588Z" fill="black"/>
<path d="M431.93 109.52C429.247 109.52 427.073 111.956 427.073 114.958C427.073 115.24 427.099 115.515 427.135 115.784L354.352 158.513C353.487 157.62 352.334 157.07 351.063 157.07C348.747 157.07 346.815 158.884 346.327 161.312L274.581 171.234C273.802 169.397 272.134 168.124 270.197 168.124C268.997 168.124 267.898 168.614 267.05 169.424L193.234 131.803C193.248 131.628 193.258 131.454 193.258 131.275C193.258 128.27 191.082 125.836 188.401 125.836C186.465 125.836 184.798 127.107 184.017 128.941L112.357 119.766C112.077 117.059 110.027 114.956 107.533 114.956C104.85 114.956 102.676 117.392 102.676 120.395C102.676 123.399 104.852 125.834 107.533 125.834C109.29 125.834 110.822 124.787 111.677 123.223L183.657 132.438C184.135 134.881 186.075 136.711 188.401 136.711C189.792 136.711 191.042 136.053 191.928 135.004L265.438 172.469C265.374 172.82 265.34 173.185 265.34 173.559C265.34 176.563 267.516 178.997 270.197 178.997C272.521 178.997 274.461 177.17 274.939 174.729L346.667 164.811C347.442 166.661 349.117 167.945 351.063 167.945C353.746 167.945 355.92 165.509 355.92 162.507C355.92 162.2 355.892 161.9 355.848 161.609L428.593 118.903C429.465 119.824 430.636 120.395 431.928 120.395C434.612 120.395 436.786 117.958 436.786 114.956C436.788 111.956 434.614 109.52 431.93 109.52Z" fill="black"/>
<path d="M160.551 247.198L157.634 238.501C156.702 235.721 157.005 232.589 158.444 230.119L162.947 222.393C163.935 220.696 164.006 218.62 163.136 216.838C162.267 215.054 160.688 214.059 158.941 214.182L150.935 214.722C148.381 214.886 145.91 213.592 144.336 211.236L139.415 203.865C138.534 202.548 137.26 201.826 135.886 201.826C135.573 201.826 135.255 201.865 134.934 201.94C133.21 202.352 131.912 203.781 131.468 205.763L129.436 214.792C128.786 217.679 126.959 220.005 124.55 221.019L117.005 224.191C115.349 224.888 114.243 226.519 114.048 228.554C113.852 230.591 114.619 232.466 116.101 233.573L122.853 238.613C125.01 240.223 126.347 242.967 126.431 245.947L126.691 255.277C126.748 257.325 127.739 259.054 129.342 259.899C130.945 260.747 132.717 260.476 134.077 259.177L140.28 253.263C142.263 251.371 144.92 250.738 147.378 251.567L155.083 254.162C156.776 254.732 158.493 254.169 159.679 252.656C160.864 251.15 161.191 249.107 160.551 247.198Z" fill="white"/>
<path d="M164.997 223.501C166.687 220.61 166.813 216.927 165.327 213.888C163.841 210.851 161.042 209.085 158.047 209.291L149.975 209.834C148.485 209.935 147.033 209.174 146.109 207.798L141.148 200.388C139.301 197.63 136.325 196.35 133.374 197.053C130.426 197.756 128.121 200.29 127.357 203.67L125.309 212.747C124.928 214.433 123.858 215.791 122.447 216.384L114.841 219.573C112.011 220.759 110.044 223.652 109.706 227.124C109.371 230.597 110.735 233.922 113.269 235.81L120.075 240.876C121.338 241.817 122.122 243.418 122.171 245.159L122.433 254.538C122.53 258.029 124.294 261.096 127.034 262.539C128.081 263.091 129.191 263.364 130.29 263.364C132.064 263.364 133.814 262.658 135.251 261.291L141.505 255.345C142.665 254.241 144.219 253.87 145.663 254.355L153.431 256.964C156.322 257.935 159.379 256.937 161.408 254.358C163.436 251.779 164.019 248.155 162.925 244.9L159.985 236.158C159.438 234.534 159.616 232.704 160.458 231.263L164.997 223.501ZM154.346 253.302L146.579 250.693C144.098 249.859 141.422 250.496 139.423 252.397L133.169 258.343C131.796 259.648 130.012 259.919 128.395 259.069C126.779 258.217 125.78 256.481 125.723 254.422L125.461 245.042C125.378 242.044 124.03 239.289 121.853 237.669L115.047 232.603C113.553 231.49 112.779 229.605 112.976 227.557C113.174 225.51 114.289 223.87 115.958 223.171L123.564 219.983C125.996 218.963 127.837 216.623 128.49 213.723L130.538 204.646C130.988 202.653 132.295 201.215 134.033 200.803C134.355 200.727 134.677 200.688 134.993 200.688C136.378 200.688 137.663 201.414 138.551 202.738L143.512 210.148C145.099 212.516 147.591 213.817 150.165 213.652L158.236 213.109C159.997 212.983 161.589 213.986 162.465 215.78C163.342 217.571 163.271 219.66 162.274 221.364L157.735 229.131C156.284 231.611 155.979 234.763 156.918 237.557L159.858 246.3C160.504 248.219 160.174 250.274 158.976 251.795C157.784 253.309 156.052 253.874 154.346 253.302Z" fill="black"/>
<path d="M112.986 271.257C111.875 269.503 111.551 267.204 112.12 265.108L113.733 259.163C114.025 258.092 113.797 256.98 113.128 256.193C112.459 255.405 111.532 255.156 110.649 255.53L105.75 257.604C104.023 258.337 102.108 257.997 100.628 256.697L96.4322 253.012C96.0057 252.637 95.5166 252.445 95.0218 252.445C94.6426 252.445 94.2597 252.557 93.8995 252.786C93.0691 253.308 92.5895 254.293 92.6103 255.421L92.7336 261.673C92.7772 263.879 91.9184 265.968 90.434 267.261L86.2273 270.928C85.469 271.588 85.1107 272.648 85.2662 273.76C85.4235 274.872 86.051 275.728 86.9496 276.05L91.9241 277.84C93.6796 278.471 95.0635 280.103 95.6265 282.202L97.2208 288.153C97.509 289.226 98.2332 289.964 99.1583 290.128C100.083 290.295 100.954 289.836 101.486 288.909L104.438 283.764C105.477 281.951 107.189 280.871 109.016 280.871C109.02 280.871 109.024 280.871 109.028 280.871L114.218 280.882C114.22 280.882 114.222 280.882 114.224 280.882C115.159 280.882 115.962 280.282 116.378 279.272C116.793 278.263 116.702 277.123 116.135 276.228L112.986 271.257Z" fill="white"/>
<path d="M118.539 273.693L115.219 268.734C114.713 267.978 114.565 266.987 114.825 266.083L116.525 260.153C117.224 257.716 116.659 255.089 115.053 253.296C113.444 251.504 111.131 250.92 109.009 251.768L103.847 253.836C103.06 254.153 102.189 254.005 101.513 253.444L97.0921 249.768C95.276 248.257 92.9106 248.057 90.9167 249.246C88.9249 250.435 87.7202 252.766 87.7741 255.328L87.904 261.565C87.9239 262.515 87.5324 263.417 86.8571 263.973L82.4239 267.632C80.6018 269.135 79.7048 271.638 80.0804 274.165C80.456 276.691 82.0283 278.718 84.182 279.452L89.4243 281.238C90.2235 281.511 90.8548 282.213 91.1105 283.119L92.7907 289.056C93.482 291.495 95.292 293.243 97.5156 293.616C97.8073 293.666 98.097 293.689 98.3867 293.689C100.295 293.689 102.085 292.634 103.194 290.803L106.304 285.671C106.778 284.889 107.557 284.422 108.39 284.422C108.392 284.422 108.394 284.422 108.396 284.422L113.866 284.434C113.87 284.434 113.874 284.434 113.878 284.434C116.122 284.434 118.133 283.01 119.13 280.718C120.131 278.425 119.904 275.73 118.539 273.693ZM116.148 279.035C115.71 280.04 114.863 280.641 113.878 280.641C113.876 280.641 113.874 280.641 113.872 280.641L108.402 280.63C108.398 280.63 108.394 280.63 108.39 280.63C106.464 280.63 104.662 281.707 103.565 283.516L100.454 288.648C99.893 289.573 98.974 290.031 98.0011 289.864C97.0241 289.7 96.263 288.965 95.9593 287.894L94.2791 281.958C93.6857 279.862 92.2273 278.235 90.3773 277.607L85.1349 275.821C84.19 275.497 83.5267 274.645 83.3608 273.536C83.197 272.427 83.5746 271.372 84.3738 270.711L88.807 267.053C90.3713 265.761 91.2763 263.677 91.2304 261.479L91.1005 255.242C91.0765 254.116 91.584 253.135 92.4591 252.613C92.8387 252.385 93.2422 252.274 93.6418 252.274C94.1612 252.274 94.6767 252.463 95.1282 252.838L99.5494 256.515C101.11 257.814 103.128 258.151 104.948 257.419L110.11 255.351C111.041 254.977 112.018 255.226 112.723 256.012C113.428 256.798 113.666 257.907 113.361 258.975L111.66 264.905C111.061 266.998 111.401 269.29 112.573 271.039L115.894 275.999C116.491 276.891 116.587 278.026 116.148 279.035ZM400.401 431.276C403.151 421.353 406.545 412.259 410.676 403.792C417.433 389.954 425.233 382.179 433.873 380.664C434.073 380.63 434.273 380.598 434.473 380.571C437.156 380.19 439.338 380.58 440.958 381.73C444.278 384.092 444.91 389.648 443.599 393.655C442.117 398.191 438.666 401.712 435.49 404.555C431.572 408.061 427.329 411.284 423.231 414.401C417.967 418.401 412.52 422.538 407.632 427.365C406.449 428.531 405.326 429.731 404.257 430.957C394.953 448.249 384.055 472.858 381.51 496.922C380.966 502.061 380.899 506.358 381.046 509.795C383.809 500.499 391.11 486.491 410.171 472.414C416.123 465.224 422.332 459.012 428.931 453.63C440.231 444.42 450.2 441.196 458.575 444.042C458.769 444.108 458.96 444.176 459.152 444.249C461.719 445.215 463.546 446.632 464.578 448.461C466.694 452.215 465.178 457.545 462.491 460.527C459.448 463.903 455.009 465.404 451.069 466.423C446.212 467.68 441.168 468.523 436.293 469.341C430.034 470.389 423.559 471.471 417.329 473.446C415.391 474.061 413.519 474.771 411.715 475.559C411.713 475.559 411.713 475.562 411.711 475.562C412.642 475.667 413.721 475.842 414.966 476.124C420.298 475.869 425.417 476.118 430.409 476.892C439.815 478.35 446.098 482.074 449.093 487.965C449.163 488.102 449.231 488.239 449.295 488.378C450.176 490.23 450.502 491.911 450.262 493.371C449.77 496.369 446.826 498.209 444.264 498.255C441.363 498.31 438.54 496.683 436.161 495.084C433.228 493.113 430.373 490.838 427.614 488.64C424.07 485.815 420.406 482.895 416.496 480.546C416.123 480.323 415.747 480.106 415.373 479.897C410.123 478.562 407.977 479.163 407.871 479.195C407.596 479.295 407.314 479.298 407.048 479.229C395.766 488.61 389.827 497.553 386.72 504.114C382.175 513.713 382.551 520.394 382.557 520.481C382.559 520.513 382.555 520.545 382.555 520.579C382.557 520.643 382.557 520.706 382.551 520.768C382.547 520.825 382.541 520.882 382.531 520.937C382.523 520.993 382.511 521.05 382.497 521.105C382.483 521.162 382.467 521.217 382.447 521.271C382.429 521.324 382.409 521.376 382.387 521.426C382.365 521.479 382.339 521.527 382.313 521.577C382.285 521.627 382.257 521.675 382.225 521.72C382.195 521.763 382.163 521.807 382.131 521.848C382.095 521.891 382.059 521.932 382.021 521.971C381.983 522.009 381.943 522.044 381.901 522.078C381.861 522.11 381.822 522.142 381.778 522.171C381.73 522.203 381.678 522.233 381.626 522.258C381.6 522.271 381.578 522.29 381.552 522.301C381.536 522.308 381.522 522.308 381.506 522.312C381.406 522.351 381.302 522.381 381.194 522.397C381.172 522.399 381.15 522.408 381.128 522.41C381.124 522.41 381.12 522.413 381.116 522.413C381 522.424 380.887 522.415 380.777 522.399C380.763 522.397 380.749 522.399 380.735 522.397C380.735 522.397 380.735 522.397 380.733 522.397C380.733 522.397 380.733 522.397 380.731 522.397C380.611 522.374 380.497 522.331 380.387 522.281C380.363 522.269 380.339 522.258 380.315 522.244C380.207 522.187 380.105 522.119 380.013 522.037C380.001 522.025 379.991 522.012 379.978 522C379.894 521.921 379.82 521.832 379.752 521.734C379.736 521.711 379.72 521.691 379.706 521.668C379.636 521.554 379.576 521.433 379.53 521.301C379.526 521.29 379.52 521.283 379.516 521.271C379.4 520.932 376.719 512.761 378.345 496.861C380.779 473.063 391.145 448.848 400.401 431.276Z" fill="black"/>
<path d="M433.733 395.372C435.419 395.372 436.786 393.816 436.786 391.898C436.786 389.979 435.419 388.424 433.733 388.424C432.047 388.424 430.68 389.979 430.68 391.898C430.68 393.816 432.047 395.372 433.733 395.372Z" fill="white"/>
<path d="M451.616 459.888C453.544 459.888 455.106 457.888 455.106 455.422C455.106 452.955 453.544 450.955 451.616 450.955C449.689 450.955 448.127 452.955 448.127 455.422C448.127 457.888 449.689 459.888 451.616 459.888Z" fill="white"/>
<path d="M442.458 492.641C444.144 492.641 445.511 491.308 445.511 489.663C445.511 488.019 444.144 486.686 442.458 486.686C440.771 486.686 439.404 488.019 439.404 489.663C439.404 491.308 440.771 492.641 442.458 492.641Z" fill="white"/>
<path d="M161.384 405.781C168.959 418.065 175.377 431.298 180.296 445.475C182.79 452.665 184.931 460.582 183.148 468.048C181.201 476.203 174.836 482.13 167.966 485.065C151.182 492.234 131.78 483.858 118.84 469.585C105.899 455.313 98.0989 436.071 90.7449 417.233C84.9549 402.401 79.1788 387.325 70.7505 374.179C67.1387 368.544 48.0665 347.941 54.1369 340.128C62.3874 329.117 92.1825 332.412 114.067 351.131C132.09 366.549 148.43 384.776 161.384 405.781Z" fill="black"/>
<path d="M77.7393 354.4C78.311 353.584 79.3642 353.447 80.0863 354.093C111.226 381.856 133.928 415.7 147.491 439.201C147.565 439.33 147.635 439.457 147.71 439.583C144.887 423.695 136.725 390.845 115.411 369.965C114.753 369.321 114.682 368.196 115.254 367.455C115.826 366.713 116.825 366.634 117.483 367.278C133.066 382.543 141.671 403.8 146.147 418.945C150.243 432.804 151.702 443.956 152.081 447.37C163.734 468.662 169.646 483.883 169.71 484.053C170.077 485.006 169.688 486.116 168.841 486.529C168.833 486.534 168.825 486.536 168.817 486.541C167.977 486.936 167.006 486.498 166.641 485.551C166.514 485.221 160.767 470.528 149.375 449.705C149.308 449.607 149.25 449.504 149.202 449.391C145.003 441.732 140.043 433.254 134.323 424.362C130.155 425.544 117.176 426.8 100.618 404.804C100.052 404.053 100.137 402.933 100.801 402.295C101.467 401.658 102.464 401.751 103.027 402.501C116.841 420.85 127.762 421.781 132.241 421.153C118.373 400.042 100.305 376.916 78.0081 357.035C77.2899 356.4 77.1676 355.216 77.7393 354.4Z" fill="white"/>
<path d="M155.119 211.555C155.085 196.819 164.127 178.893 175.3 171.503L271.693 107.739C277.318 104.017 282.417 103.671 286.098 106.124L294.713 111.887C294.723 111.894 294.733 111.901 294.742 111.908L294.798 111.944V111.947C298.429 114.368 300.682 119.508 300.7 126.828L300.599 420.385C300.633 435.101 291.591 453.047 280.418 460.44L184.026 524.204C178.402 527.923 173.307 528.264 169.626 525.809L169.624 525.811L160.922 519.994C157.288 517.572 155.035 512.423 155.018 505.112L155.119 211.555Z" fill="black"/>
<path d="M178.296 523.177L203.993 506.325L263.898 467.052L279.764 456.647C291.075 449.23 298.042 435.519 298.044 420.683L298.082 124.88C298.082 116.888 290.471 111.895 284.379 115.887L263.633 129.489C263.419 129.63 263.225 129.81 263.061 130.019L248.043 149.257C247.879 149.469 247.685 149.646 247.471 149.786L217.035 169.738C216.591 170.029 216.073 170.143 215.566 170.063L205.24 168.417C204.733 168.335 204.215 168.451 203.771 168.741L184.927 181.097C173.461 188.616 166.397 202.514 166.395 217.554L166.357 515.34C166.351 522.305 172.987 526.658 178.296 523.177Z" fill="white"/>
<path d="M246.323 147.234L225.905 160.556C224.78 161.29 223.869 160.854 223.869 159.582C223.869 158.311 224.78 156.686 225.905 155.952L246.323 142.63C247.448 141.896 248.36 142.331 248.36 143.603C248.36 144.875 247.448 146.5 246.323 147.234ZM158.764 265.646C159.163 266.161 159.504 266.767 159.752 267.403C160.034 268.123 160.196 268.88 160.196 269.575L160.194 294.037C160.192 294.954 159.907 295.596 159.452 295.897L157.601 297.11C158.058 296.809 158.343 296.166 158.345 295.25L158.347 270.788C158.349 270.093 158.185 269.336 157.903 268.616C157.655 267.982 157.314 267.373 156.915 266.861C156.578 266.428 156.199 266.058 155.796 265.796L155.092 265.338C154.384 264.875 153.741 264.834 153.273 265.142L155.122 263.927C155.588 263.62 156.233 263.663 156.941 264.123L157.645 264.581C158.048 264.844 158.429 265.213 158.764 265.646Z" fill="white"/>
<path d="M159.38 269.491L159.218 294.981C159.202 296.905 158.025 297.66 156.575 296.682L155.857 296.197C154.42 295.228 153.257 292.896 153.274 290.972L153.435 265.482C153.452 263.58 154.641 262.815 156.078 263.782L156.796 264.266C158.248 265.245 159.396 267.589 159.38 269.491Z" fill="black"/>
<path d="M216.811 159.535C215.44 160.436 214.334 162.622 214.338 164.417C214.342 166.211 215.456 166.936 216.827 166.036C218.197 165.135 219.306 162.948 219.302 161.154C219.296 159.357 218.181 158.632 216.811 159.535ZM244.925 464.476C245.165 464.421 245.391 464.393 245.593 464.393C245.987 464.393 246.293 464.496 246.445 464.69C246.671 464.979 246.671 465.636 246.447 466.4C245.763 468.742 243.292 471.225 241.157 471.715C240.451 471.877 239.869 471.795 239.641 471.498C239.417 471.209 239.415 470.552 239.639 469.788C240.333 467.41 242.756 464.975 244.925 464.476Z" fill="white"/>
<path d="M238.01 473.236C238.804 474.242 239.989 474.775 241.364 474.775C241.788 474.775 242.231 474.724 242.686 474.621C246.063 473.858 249.556 470.405 250.639 466.759C251.256 464.683 251.017 462.739 249.982 461.426C248.943 460.108 247.237 459.603 245.306 460.041C241.932 460.804 238.44 464.257 237.356 467.903C236.736 469.981 236.975 471.925 238.01 473.236ZM240.458 469.062C241.181 466.629 243.696 464.145 245.951 463.635C246.2 463.579 246.435 463.551 246.645 463.551C247.054 463.551 247.372 463.656 247.53 463.854C247.765 464.15 247.765 464.82 247.532 465.6C246.821 467.991 244.255 470.526 242.038 471.027C241.304 471.192 240.699 471.108 240.462 470.806C240.228 470.512 240.225 469.842 240.458 469.062Z" fill="black"/>
<path d="M223.941 299.603L168.281 263.041V229.686L223.941 294.36V299.603Z" fill="white"/>
<path d="M277.555 154.232L267.078 161.117L323.729 226.943L334.206 220.059L308.983 190.752L277.555 154.232Z" fill="white"/>
<path d="M324.934 235.439L335.397 228.564V223.652L324.934 230.525V235.439Z" fill="white"/>
<path d="M179.168 218.867L214.373 259.772L235.817 284.693L246.296 277.809L191.735 214.412L189.645 211.982L179.168 218.867Z" fill="white"/>
<path d="M237.039 293.184L247.504 286.309V281.391L237.039 288.264V293.184Z" fill="white"/>
<path d="M312.23 234.499L255.579 168.672L245.102 175.554L301.753 241.381L312.23 234.499Z" fill="white"/>
<path d="M302.945 249.885L313.409 243.009V238.096L302.945 244.969V249.885Z" fill="white"/>
<path d="M354.779 206.547L298.13 140.721L289.057 146.68L326.185 189.82L345.708 212.504L354.779 206.547Z" fill="white"/>
<path d="M346.924 216.08V220.992L355.723 215.212V210.301L346.924 216.08Z" fill="white"/>
<path d="M290.253 248.936L233.602 183.109L223.123 189.991L231.761 200.028L279.774 255.818L290.253 248.936Z" fill="white"/>
<path d="M280.988 264.31L291.452 257.435V252.521L280.988 259.394V264.31Z" fill="white"/>
<path d="M268.273 263.372L211.622 197.545L201.145 204.427L257.795 270.254L268.273 263.372Z" fill="white"/>
<path d="M258.998 278.756L269.461 271.883V266.965L258.998 273.838V278.756Z" fill="white"/>
<path d="M358.22 205.38C358.198 205.364 358.172 205.359 358.148 205.346L298.668 136.232L166.292 223.189C166.188 223.212 166.086 223.244 165.986 223.289C165.359 223.58 164.951 224.273 164.951 225.044V264.133C164.951 264.811 165.269 265.436 165.784 265.774L224.774 304.523C225.032 304.691 225.32 304.778 225.607 304.778C225.895 304.778 226.183 304.694 226.44 304.523L358.222 217.946C358.737 217.607 359.055 216.982 359.055 216.305V207.021C359.053 206.343 358.735 205.718 358.22 205.38ZM346.923 220.991V216.08L355.723 210.3V215.212L346.923 220.991ZM334.207 220.06L323.73 226.942L267.079 161.115L277.556 154.233L308.984 190.752L334.207 220.06ZM313.408 243.01L302.945 249.885V244.969L313.408 238.096V243.01ZM191.735 214.412L246.296 277.809L235.819 284.691L214.373 259.772L179.168 218.864L189.645 211.982L191.735 214.412ZM223.941 299.603L168.281 263.04V229.685L223.941 294.359V299.603ZM247.505 286.309L237.041 293.184V288.264L247.505 281.391V286.309ZM201.145 204.427L211.622 197.545L268.273 263.372L257.796 270.254L201.145 204.427ZM269.462 271.884L258.999 278.759V273.841L269.462 266.968V271.884ZM231.76 200.027L223.122 189.991L233.6 183.109L290.25 248.935L279.773 255.817L231.76 200.027ZM291.451 257.436L280.988 264.311V259.395L291.451 252.522V257.436ZM245.101 175.554L255.579 168.672L312.23 234.499L301.752 241.381L245.101 175.554ZM335.397 228.564L324.934 235.44V230.526L335.397 223.653V228.564ZM326.185 189.82L289.056 146.678L298.127 140.719L354.778 206.546L345.707 212.505L326.185 189.82Z" fill="black"/>
<path d="M414.222 228.643L343.678 249.643L351.321 282.881L421.866 261.881L414.222 228.643Z" fill="white"/>
<path d="M361.908 283.65L414.81 267.904C414.812 267.904 414.814 267.902 414.818 267.902L425.93 264.595L416.603 224.025L339.615 246.94L348.942 287.509L361.908 283.65C361.906 283.652 361.906 283.652 361.908 283.65C361.908 283.652 361.908 283.65 361.908 283.65ZM357.354 272.488C354.062 270.856 350.59 272.049 348.996 272.786L346.367 261.354C350.011 260.142 352.442 258.006 353.596 254.997C354.775 251.924 354.279 248.717 353.708 246.662L403.154 231.946C404.238 235.839 406.072 238.451 408.617 239.714C409.826 240.314 411.06 240.533 412.217 240.533C414.053 240.533 415.689 239.983 416.723 239.53L419.176 250.199C415.716 251.428 413.397 253.524 412.279 256.442C411.102 259.515 411.596 262.722 412.167 264.776L362.601 279.529C361.499 276.038 359.739 273.672 357.354 272.488ZM415.397 263.815C414.973 262.376 414.538 260.029 415.333 257.956C416.032 256.128 417.612 254.76 420.023 253.872L421.867 261.89L415.397 263.815ZM415.874 235.835C414.868 236.326 412.219 237.378 409.934 236.233C408.352 235.439 407.161 233.673 406.38 230.985L414.222 228.651L415.874 235.835ZM350.48 247.624C350.903 249.062 351.341 251.41 350.544 253.483C349.813 255.39 348.117 256.794 345.522 257.681L343.674 249.649L350.48 247.624ZM349.849 276.493C350.582 276.104 353.532 274.715 356.039 275.97C357.473 276.688 358.582 278.215 359.359 280.495L351.321 282.888L349.849 276.493Z" fill="black"/>
<path d="M384.637 268.125C382.847 268.125 381.046 267.354 379.422 265.868C377.398 264.015 375.88 261.234 375.145 258.038C373.581 251.236 376.098 244.574 380.754 243.185C385.412 241.797 390.474 246.206 392.038 253.011C392.773 256.206 392.645 259.477 391.679 262.22C390.642 265.159 388.778 267.163 386.427 267.863C385.838 268.038 385.238 268.125 384.637 268.125ZM382.514 246.72C382.204 246.72 381.898 246.763 381.597 246.851C378.764 247.695 377.284 252.379 378.365 257.079C378.92 259.495 380.037 261.568 381.509 262.915C382.835 264.129 384.284 264.584 385.584 264.197C386.886 263.809 387.953 262.606 388.586 260.809C389.289 258.813 389.371 256.386 388.816 253.97C387.851 249.77 385.109 246.72 382.514 246.72ZM361.104 264.113C360.365 264.113 359.69 263.55 359.494 262.697C359.262 261.686 359.793 260.649 360.682 260.386L369.911 257.64C370.8 257.379 371.711 257.981 371.943 258.993C372.174 260.004 371.643 261.04 370.754 261.304L361.525 264.05C361.385 264.093 361.244 264.113 361.104 264.113ZM396.261 253.649C395.522 253.649 394.847 253.086 394.651 252.233C394.419 251.222 394.951 250.186 395.84 249.922L405.068 247.176C405.957 246.913 406.868 247.517 407.1 248.529C407.332 249.54 406.8 250.576 405.911 250.84L396.683 253.586C396.543 253.629 396.401 253.649 396.261 253.649Z" fill="black"/>
<path d="M344.287 325.172L389.24 368.612C378.04 383.615 361.588 392.276 344.287 392.276C311.932 392.276 285.309 361.985 285.309 325.172C285.309 288.36 311.932 258.068 344.287 258.068C348.701 258.068 353.1 258.632 357.405 259.748L344.287 325.172Z" fill="white"/>
<path d="M344.287 394.169C328.194 394.169 312.995 386.96 301.487 373.866C289.981 360.775 283.643 343.481 283.643 325.169C283.643 306.86 289.979 289.566 301.487 276.473C312.995 263.379 328.192 256.17 344.287 256.17C348.819 256.17 353.356 256.752 357.774 257.897C358.671 258.129 359.231 259.145 359.027 260.165L346.134 324.467L390.317 367.164C391.018 367.841 391.104 369.036 390.506 369.834C378.966 385.301 362.119 394.169 344.287 394.169ZM344.287 259.961C329.083 259.961 314.721 266.777 303.842 279.155C292.965 291.53 286.973 307.874 286.973 325.172C286.973 342.47 292.963 358.811 303.842 371.189C314.721 383.564 329.083 390.382 344.287 390.382C360.583 390.382 376.01 382.546 386.875 368.811L343.208 326.615C342.735 326.158 342.525 325.44 342.663 324.751L355.405 261.202C351.75 260.379 348.016 259.961 344.287 259.961Z" fill="black"/>
<path d="M371.264 261.95L351.33 319.688L405.496 312.633C404.096 301.565 400.212 291.076 394.212 282.192C388.211 273.31 380.303 266.339 371.264 261.95Z" fill="white"/>
<path d="M409.017 314.08C407.765 301.638 403.56 289.813 396.852 279.883C390.144 269.954 381.185 262.285 370.94 257.705C370.083 257.321 369.118 257.803 368.782 258.776L347.219 321.234C347.005 321.853 347.093 322.555 347.448 323.08C347.766 323.548 348.255 323.821 348.769 323.821C348.831 323.821 348.895 323.816 348.959 323.809L407.555 316.18C407.995 316.123 408.394 315.871 408.67 315.475C408.941 315.08 409.067 314.58 409.017 314.08ZM351.33 319.687L371.263 261.949C380.302 266.337 388.211 273.306 394.211 282.19C400.212 291.074 404.095 301.561 405.496 312.632L351.33 319.687Z" fill="black"/>
<path d="M408.727 324.872L356.838 327.695L400.946 358.918C406.048 348.957 408.737 337.65 408.737 326.093C408.737 325.686 408.733 325.279 408.727 324.872Z" fill="white"/>
<path d="M411.996 322.797C411.952 321.752 411.189 320.94 410.254 320.997L351.344 324.202C350.617 324.24 349.995 324.815 349.812 325.618C349.628 326.42 349.925 327.265 350.543 327.702L400.62 363.15C400.893 363.344 401.197 363.437 401.497 363.437C402.052 363.437 402.595 363.121 402.911 362.543C408.9 351.595 412.064 338.991 412.064 326.095C412.066 324.995 412.042 323.886 411.996 322.797ZM356.837 327.695L408.726 324.872C408.734 325.279 408.736 325.686 408.736 326.093C408.736 337.647 406.047 348.957 400.945 358.918L356.837 327.695Z" fill="black"/>
<path d="M315.088 356.288C314.614 356.322 314.141 356.072 313.817 355.663C313.494 355.254 313.342 354.706 313.4 354.161L314.78 341.479L209.387 411.069L227.772 408.967C227.828 408.96 227.884 408.958 227.938 408.958C228.408 408.958 228.859 409.185 229.177 409.585C229.532 410.033 229.676 410.649 229.568 411.239L226.796 426.317L333.985 355.827L315.088 356.288Z" fill="white"/>
<path d="M342.034 353.267C341.832 352.447 341.177 351.883 340.432 351.883C340.42 351.883 340.408 351.883 340.396 351.883L316.943 352.454L318.499 338.16C318.577 337.447 318.291 336.744 317.764 336.347C317.236 335.951 316.557 335.928 316.01 336.287L201.052 412.192C200.375 412.639 200.063 413.564 200.303 414.412C200.545 415.262 201.28 415.799 202.053 415.714L225.842 412.994L222.771 429.69C222.638 430.422 222.893 431.174 223.425 431.613C223.714 431.851 224.058 431.972 224.401 431.972C224.689 431.972 224.977 431.888 225.234 431.717L341.263 355.415C341.922 354.986 342.238 354.099 342.034 353.267ZM229.567 411.239C229.675 410.648 229.531 410.035 229.176 409.585C228.858 409.183 228.409 408.957 227.937 408.957C227.881 408.957 227.825 408.96 227.771 408.967L209.386 411.069L314.779 341.479L313.399 354.161C313.339 354.706 313.491 355.256 313.816 355.663C314.142 356.07 314.614 356.322 315.087 356.288L333.984 355.829L226.795 426.319L229.567 411.239Z" fill="black"/>
<path d="M222.772 429.693L225.839 413.026L203.468 415.558L196.301 560.192L226.899 580.158L222.739 430.14C222.733 429.99 222.745 429.84 222.772 429.693Z" fill="white"/>
<path d="M226.07 430.247L229.562 411.271C229.67 410.68 229.526 410.066 229.171 409.616C228.817 409.166 228.296 408.939 227.766 408.998L201.718 411.946C200.901 412.039 200.268 412.794 200.22 413.723L192.915 561.143C192.879 561.859 193.202 562.536 193.748 562.893L227.824 585.13C228.08 585.298 228.368 585.38 228.653 585.38C228.951 585.38 229.247 585.289 229.51 585.11C230.028 584.755 230.335 584.112 230.317 583.426L226.07 430.247ZM196.301 560.191L203.468 415.558L225.839 413.026L222.772 429.692C222.744 429.84 222.734 429.99 222.738 430.14L226.899 580.157L196.301 560.191Z" fill="black"/>
<path d="M194.586 561.257L219.941 549.959L224.4 430.078L228.656 583.489L194.586 561.257Z" fill="black"/>
<path d="M313.52 354.636L313.615 369.852L335.88 355.227L313.52 354.636Z" fill="black"/>
<path d="M226.096 431.153L230.235 580.278L344.4 505.717L338.882 356.983L226.096 431.153Z" fill="white"/>
<path d="M342.094 353.697C342.07 353.036 341.742 352.436 341.233 352.117C340.721 351.799 340.102 351.806 339.599 352.138L223.57 428.44C223.039 428.79 222.719 429.442 222.739 430.14L226.996 583.551C227.014 584.214 227.338 584.821 227.849 585.144C228.101 585.305 228.38 585.385 228.66 585.385C228.946 585.385 229.231 585.301 229.489 585.133L346.938 508.428C347.477 508.076 347.799 507.412 347.773 506.706L342.094 353.697ZM230.236 580.278L226.097 431.154L338.884 356.983L344.403 505.717L230.236 580.278Z" fill="black"/>
<path d="M304.114 391.85C304.45 393.486 303.795 395.514 302.654 396.382C301.513 397.248 300.315 396.625 299.981 394.989C299.646 393.352 300.299 391.325 301.441 390.457C302.584 389.591 303.781 390.214 304.114 391.85ZM270.198 415.373C270.533 417.01 269.878 419.037 268.737 419.903C267.597 420.769 266.398 420.146 266.065 418.51C265.729 416.873 266.382 414.846 267.525 413.978C268.667 413.114 269.864 413.737 270.198 415.373Z" fill="black"/>
<path d="M288.114 447.802C286.232 447.802 284.383 447.277 282.581 446.229C272.197 440.188 266.98 418.39 266.764 417.467C266.526 416.456 267.054 415.419 267.943 415.149C268.832 414.881 269.742 415.479 269.98 416.49C270.03 416.701 275.032 437.586 284.099 442.859C286.488 444.247 288.897 444.384 291.458 443.27C297.567 440.62 301.751 436.186 303.899 430.095C309.154 415.185 300.833 394.928 300.747 394.726C300.353 393.78 300.705 392.651 301.536 392.203C302.365 391.757 303.357 392.155 303.753 393.098C304.125 393.987 312.788 415.033 306.993 431.493C304.486 438.611 299.66 443.763 292.645 446.809C291.12 447.473 289.606 447.802 288.114 447.802Z" fill="black"/>
<path d="M185.899 347.369C185.269 347.369 184.665 346.961 184.385 346.27C183.999 345.321 184.363 344.197 185.199 343.758L240.726 314.646C241.559 314.205 242.551 314.621 242.937 315.57C243.323 316.519 242.959 317.644 242.123 318.082L186.596 347.195C186.369 347.313 186.133 347.369 185.899 347.369ZM237.699 351.969C237.313 351.019 236.321 350.604 235.487 351.044L185.197 377.411C184.361 377.849 183.997 378.973 184.383 379.923C184.665 380.616 185.267 381.022 185.897 381.022C186.131 381.022 186.369 380.965 186.594 380.847L236.885 354.481C237.721 354.042 238.085 352.918 237.699 351.969ZM224.311 343.252C223.925 342.302 222.934 341.887 222.1 342.327L185.199 361.676C184.363 362.114 183.999 363.238 184.385 364.188C184.667 364.881 185.269 365.287 185.899 365.287C186.133 365.287 186.371 365.23 186.596 365.112L223.498 345.764C224.331 345.325 224.697 344.201 224.311 343.252ZM452.548 229.682C449.335 229.682 447.232 228.171 445.866 226.402C442.883 222.53 442.056 215.316 443.487 206.27C440.008 205.686 436.034 205.123 431.495 204.598C413.867 202.559 396.385 202.095 396.212 202.091C395.342 202.068 394.654 201.25 394.672 200.262C394.69 199.274 395.426 198.516 396.282 198.514C396.457 198.518 414.047 198.984 431.797 201.037C436.442 201.575 440.53 202.15 444.137 202.752C444.171 202.595 444.205 202.436 444.239 202.277C446.482 191.988 451.044 181.441 456.443 174.064C457.53 172.576 458.71 171.336 459.965 170.346C459.669 169.883 459.378 169.412 459.094 168.938C454.257 160.902 451.384 152.192 451.214 145.047C451.064 138.737 453.082 133.954 456.896 131.576C457.658 131.102 458.616 131.417 459.034 132.285C459.452 133.15 459.174 134.238 458.41 134.713C454.915 136.891 454.279 141.483 454.361 144.949C454.527 151.892 457.602 160.684 462.74 168.613C467.805 166.221 473.743 167.337 479.645 172.038C485.596 176.778 490.757 184.916 488.647 189.009C487.288 191.648 483.975 191.555 478.803 188.731C472.583 185.338 466.699 179.91 461.889 173.192C460.633 174.162 459.627 175.309 458.864 176.351C453.392 183.83 449.239 194.055 447.234 203.301C466.561 206.904 470.122 211.346 470.916 214.612C472.095 219.468 466.873 223.193 465.156 224.417C459.723 228.294 455.627 229.682 452.548 229.682ZM446.57 206.815C445.36 214.335 445.75 220.819 448.235 224.047C451.614 228.432 458.394 225.021 463.484 221.389C466.679 219.109 468.242 217.042 467.883 215.564C467.559 214.233 464.978 210.258 446.57 206.815ZM464.774 171.554C468.948 177.23 474.196 182.249 480.168 185.509C484.801 188.034 485.926 187.212 485.932 187.203C486.562 185.979 483.737 179.665 477.839 174.968C472.395 170.63 468.051 170.314 464.774 171.554ZM127.909 546.237C127.809 546.237 127.705 546.226 127.603 546.203C126.749 546.013 126.195 545.07 126.363 544.103C129.092 528.404 119.976 509.51 109.963 501.006C109.505 500.618 108.979 500.195 108.4 499.775C105.865 518.338 101.534 533.939 97.2695 538.965C95.4902 541.061 93.9527 540.996 92.973 540.569C91.2296 539.81 88.8625 537.109 88.4106 522.467C88.0887 512.022 89.1924 498.685 96.2899 494.467C99.0509 492.827 102.34 492.798 105.883 494.308C108.82 468.614 108.366 436.404 99.0469 411.57C94.2226 398.713 89.2243 392.206 84.536 392.712C72.4742 394.057 61.7859 437.844 58.687 454.603C58.507 455.57 57.6713 456.188 56.8216 455.986C55.9699 455.782 55.4261 454.835 55.604 453.867C55.632 453.713 58.525 438.191 63.3313 422.656C69.959 401.234 76.9886 389.962 84.2281 389.155C90.5779 388.442 96.3718 395.322 101.944 410.171C112.268 437.685 111.247 470.776 109.717 488.053C109.481 490.713 109.205 493.345 108.893 495.932C109.867 496.561 110.853 497.299 111.846 498.142C122.623 507.293 132.417 527.732 129.45 544.795C129.302 545.649 128.645 546.237 127.909 546.237ZM100.952 496.779C99.8566 496.779 98.773 497.031 97.7494 497.64C93.3449 500.257 91.1457 509.03 91.5575 522.344C91.9814 536.069 94.0807 537.223 94.1026 537.232C94.0966 537.23 94.7964 537.125 96.074 534.915C99.4868 529.01 103.203 515.185 105.439 497.965C104.013 497.268 102.474 496.779 100.952 496.779Z" fill="black"/>
<path d="M334.061 451.278L336.853 567.649L387.927 534.287L382.743 419.943L334.061 451.278Z" fill="white"/>
<path d="M385.929 416.689C385.899 416.034 385.573 415.443 385.068 415.125C384.562 414.809 383.949 414.814 383.446 415.137L331.549 448.542C331.014 448.888 330.688 449.542 330.704 450.242L333.598 570.923C333.614 571.588 333.938 572.195 334.447 572.523C334.701 572.684 334.981 572.766 335.262 572.766C335.548 572.766 335.834 572.682 336.091 572.514L390.469 536.992C391.012 536.638 391.334 535.965 391.302 535.251L385.929 416.689ZM336.852 567.65L334.06 451.279L382.74 419.944L387.924 534.287L336.852 567.65Z" fill="black"/>
<path d="M330.737 449.813L332.933 437.574L315.808 439.608L309.621 552.068L333.53 567.578L330.703 450.243C330.701 450.1 330.711 449.954 330.737 449.813Z" fill="white"/>
<path d="M334.04 450.358L336.651 435.801C336.757 435.21 336.609 434.596 336.253 434.151C335.898 433.705 335.378 433.473 334.847 433.539L314.062 436.008C313.253 436.103 312.624 436.851 312.574 437.774L306.236 553.011C306.196 553.731 306.521 554.418 307.073 554.774L334.453 572.534C334.709 572.7 334.993 572.782 335.278 572.782C335.574 572.782 335.872 572.691 336.133 572.511C336.649 572.159 336.958 571.518 336.942 570.834L334.04 450.358ZM309.622 552.07L315.808 439.61L332.933 437.576L330.738 449.815C330.712 449.956 330.702 450.101 330.704 450.244L333.53 567.579L309.622 552.07Z" fill="black"/>
<path d="M307.902 553.127L335.265 570.873L332.902 472.641L328.166 544.447L307.902 553.127Z" fill="black"/>
<path d="M363.031 417.9C362.718 417.493 362.572 416.955 362.63 416.418L363.567 407.743L321.855 435.083L334.85 433.539C334.908 433.532 334.965 433.528 335.023 433.528C335.491 433.528 335.938 433.751 336.256 434.148C336.611 434.596 336.759 435.21 336.653 435.801L334.732 446.492L378.007 418.637L364.27 418.541C363.796 418.541 363.345 418.307 363.031 417.9Z" fill="white"/>
<path d="M385.876 416.309C385.686 415.48 385.029 414.898 384.274 414.891L366.16 414.766L367.275 404.436C367.353 403.723 367.067 403.023 366.542 402.627C366.016 402.232 365.337 402.207 364.792 402.566L313.402 436.248C312.721 436.694 312.408 437.623 312.649 438.473C312.891 439.323 313.622 439.873 314.405 439.773L332.935 437.573L330.735 449.81C330.605 450.537 330.859 451.285 331.386 451.722C331.676 451.962 332.02 452.083 332.365 452.083C332.647 452.083 332.931 452.001 333.184 451.837L385.081 418.432C385.74 418.012 386.066 417.141 385.876 416.309ZM334.732 446.494L336.654 435.803C336.76 435.212 336.612 434.598 336.257 434.151C335.939 433.753 335.489 433.53 335.024 433.53C334.966 433.53 334.908 433.532 334.85 433.542L321.856 435.085L363.567 407.745L362.63 416.421C362.572 416.957 362.718 417.496 363.032 417.902C363.346 418.307 363.797 418.543 364.272 418.546L378.01 418.641L334.732 446.494Z" fill="black"/>
<path d="M363.354 417.578V429.138L381.182 417.701L363.354 417.578Z" fill="black"/>
<path d="M375.157 433.866C375.201 433.473 375.183 433.075 375.075 432.712C374.734 431.571 373.711 431.177 372.79 431.839C371.869 432.498 371.4 433.957 371.741 435.1C371.847 435.453 372.021 435.723 372.233 435.923C373.324 439.987 376.112 452.203 372.712 460.26C371.366 463.449 369.243 465.572 366.222 466.749C362.623 468.151 359.361 467.978 356.528 466.237C350.897 462.778 348.296 454.149 347.717 451.967C347.775 451.548 347.759 451.123 347.643 450.735C347.301 449.594 346.278 449.203 345.358 449.862C344.437 450.521 343.967 451.98 344.309 453.123C344.407 453.453 344.566 453.712 344.76 453.91C345.761 457.358 348.743 465.751 354.932 469.565C357.011 470.847 359.243 471.488 361.604 471.488C363.428 471.488 365.331 471.106 367.301 470.338C371.16 468.835 373.993 465.994 375.721 461.896C379.983 451.767 376.092 437.066 375.157 433.866Z" fill="black"/>
<path d="M344.318 543.474L394.915 515.559" stroke="black" stroke-width="2.5"/>
<path d="M21.8543 152.203L31.4795 95.224" stroke="black" stroke-width="2.5"/>
<path d="M155.889 42.2199L210.923 24.6" stroke="black" stroke-width="2.5"/>
<path d="M522.239 338.977L496.981 287.003" stroke="black" stroke-width="2.5"/>
<path d="M348.244 551.761L392.298 526.463" stroke="black" stroke-width="2.5"/>
<path d="M30.784 154.287L38.3874 104.058" stroke="black" stroke-width="2.5"/>
<path d="M158.14 51.1092L206.25 34.7937" stroke="black" stroke-width="2.5"/>
<path d="M530.719 335.486L507.736 290.181" stroke="black" stroke-width="2.5"/>
<circle cx="494.798" cy="461.91" r="18.0055" stroke="black" stroke-width="1.5"/>
<circle cx="88.2829" cy="18.7555" r="18.0055" stroke="black" stroke-width="1.5"/>
<path d="M370.488 436.611L389.244 461.909" stroke="black" stroke-width="2.5"/>
<path d="M377.467 423.963L396.222 449.261" stroke="black" stroke-width="2.5"/>
</svg>
