<svg width="159" height="32" viewBox="0 0 159 32" fill="none" xmlns="http://www.w3.org/2000/svg">
<g clip-path="url(#clip0_3_169)">
<path d="M108.145 9.03015H105.258C104.814 9.03015 104.454 9.39446 104.454 9.84492V10.9994C104.454 11.4498 104.815 11.8142 105.258 11.8142H108.145C108.59 11.8142 108.95 11.4498 108.95 10.9994V9.84492C108.95 9.39446 108.589 9.03015 108.145 9.03015Z" fill="#0075FF"/>
<path d="M52.8405 12.9477H49.9726C49.867 12.9477 49.7625 12.9674 49.6641 13.008C49.5669 13.0486 49.4783 13.1102 49.4042 13.1865C49.3301 13.2628 49.273 13.3539 49.2341 13.4535C49.1953 13.5532 49.1782 13.6603 49.1819 13.7674V22.5022C48.2381 23.4302 47.0502 24.2892 45.7833 24.2892C44.3269 24.2892 43.3248 23.3858 43.3248 21.1742V13.7465C43.3248 13.6406 43.3065 13.536 43.2665 13.4375C43.2264 13.3391 43.1681 13.2505 43.094 13.1766C43.0199 13.1015 42.9312 13.0437 42.834 13.0043C42.7369 12.9649 42.6324 12.9465 42.5292 12.9477H39.648C39.5435 12.9452 39.4403 12.9637 39.3431 13.0031C39.2459 13.0425 39.1572 13.1003 39.0831 13.1754C39.0091 13.2505 38.9507 13.3391 38.9119 13.4375C38.873 13.536 38.8536 13.6406 38.8548 13.7465V21.1779C38.8548 25.5877 41.2902 27.4166 44.7301 27.4166C46.6724 27.4166 47.9927 26.5969 49.1892 25.5914C49.1928 25.6566 49.1928 25.7231 49.1892 25.7883V26.6265C49.1855 26.7335 49.2038 26.8406 49.2414 26.9403C49.2791 27.04 49.3374 27.1311 49.4115 27.2074C49.4856 27.2837 49.5742 27.3452 49.6714 27.3858C49.7686 27.4265 49.8743 27.4474 49.9799 27.4462H52.8417C52.9474 27.4462 53.0506 27.4252 53.1478 27.3846C53.245 27.3428 53.3324 27.2825 53.4053 27.2062C53.4782 27.1299 53.5353 27.0388 53.5729 26.9391C53.6106 26.8394 53.6276 26.7335 53.6239 26.6265V13.7625C53.6276 13.6566 53.6094 13.5508 53.5717 13.4511C53.534 13.3526 53.477 13.2615 53.4029 13.1865C53.33 13.1102 53.2425 13.0499 53.1454 13.0092C53.0482 12.9686 52.9449 12.9477 52.8405 12.9477Z" fill="#0075FF"/>
<path d="M60.3981 21.4412C60.5791 23.5729 61.5132 24.4997 63.6461 24.4997C64.7393 24.4997 65.7002 24.1822 66.1423 23.6246C66.3148 23.4019 66.5358 23.2222 66.7897 23.1028C67.0424 22.9822 67.3205 22.9243 67.5999 22.9329H69.4948C69.598 22.9317 69.7013 22.9502 69.7972 22.9895C69.8932 23.0289 69.9806 23.088 70.0535 23.1619C70.1264 23.2369 70.1835 23.3255 70.2224 23.4228C70.2612 23.52 70.2794 23.6246 70.277 23.7292C70.277 26.496 67.4942 27.4499 63.3352 27.4499C58.7061 27.4499 55.9257 24.8985 55.9257 20.0886C55.9257 15.2788 58.7352 12.6929 63.3352 12.6929C67.9351 12.6929 70.741 15.2185 70.741 19.8979V20.6437C70.7435 20.7483 70.7252 20.8529 70.6876 20.9502C70.6499 21.0474 70.5928 21.136 70.52 21.2111C70.4471 21.2862 70.3608 21.344 70.2649 21.3834C70.1689 21.4228 70.0669 21.4425 69.9624 21.44H60.3981V21.4412ZM60.3726 18.704H66.2735C66.1945 16.7114 65.2592 15.6443 63.334 15.6443C61.4087 15.6443 60.4759 16.7114 60.369 18.704H60.3726Z" fill="#0075FF"/>
<path d="M79.3457 27.4498C75.1721 27.4498 72.5217 26.4935 72.5217 23.728C72.5181 23.6246 72.5351 23.5212 72.5727 23.424C72.6092 23.3268 72.665 23.2394 72.7367 23.1643C72.8084 23.0892 72.8934 23.0301 72.9881 22.9908C73.0829 22.9501 73.1837 22.9305 73.2869 22.9305H75.1478C75.4223 22.9231 75.6944 22.9821 75.9422 23.1028C76.19 23.2234 76.4062 23.4018 76.5714 23.6221C77.0038 24.1797 77.9476 24.4972 79.0384 24.4972C81.1774 24.4972 81.8917 23.9938 81.8917 23.2431C81.8917 21.0375 72.5047 22.2597 72.5047 16.8886C72.5047 13.8843 75.3774 12.6843 78.9692 12.6843C83.1415 12.6843 85.7895 13.6431 85.7895 16.4111C85.7932 16.5144 85.7749 16.6178 85.7385 16.7151C85.7021 16.8123 85.6462 16.8997 85.5745 16.9748C85.5029 17.0498 85.4178 17.1089 85.3231 17.1483C85.2283 17.1889 85.1275 17.2098 85.0255 17.2098H83.1646C82.8901 17.2185 82.618 17.1594 82.3702 17.0388C82.1224 16.9181 81.9074 16.7397 81.7423 16.5181C81.3086 15.9569 80.3685 15.6394 79.274 15.6394C77.5176 15.6394 76.8058 16.1428 76.8058 16.8886C76.8058 19.0991 86.1928 17.8215 86.1928 23.2431C86.1916 26.2535 83.3165 27.4486 79.3469 27.4486L79.3457 27.4498Z" fill="#0075FF"/>
<path d="M27.3604 18.8948C28.8617 18.8948 29.5844 18.2622 30.1007 17.1471L31.3166 14.3742C31.4732 14.0185 31.7259 13.7157 32.0454 13.4991C32.3648 13.2837 32.7389 13.1643 33.1228 13.1557H35.4938C36.1655 13.1557 36.2469 13.6849 35.9323 14.3729L34.3046 18.0209C33.7678 19.1852 32.7329 20.1132 31.6227 20.3508C32.6855 20.6671 33.5358 21.4105 34.3046 22.6806L36.4461 26.2289C36.8567 26.9206 36.6793 27.4486 36.0052 27.4486H33.639C32.8118 27.4486 32.1158 26.9206 31.7052 26.2289L30.1019 23.5532C29.4095 22.3926 28.5252 21.8351 27.3616 21.8351V26.6548C27.364 26.7594 27.3458 26.8628 27.3094 26.9588C27.2717 27.056 27.2158 27.1434 27.143 27.2185C27.0713 27.2923 26.9851 27.3514 26.8903 27.3908C26.7956 27.4302 26.6935 27.4511 26.5915 27.4498H23.6496C23.5463 27.4498 23.4443 27.4314 23.3496 27.3908C23.2548 27.3514 23.1686 27.2923 23.0957 27.2185C23.0228 27.1446 22.9669 27.056 22.9281 26.9588C22.8904 26.8615 22.8722 26.7582 22.8746 26.6535V9.92862C22.8722 9.824 22.8892 9.72062 22.9281 9.62338C22.9657 9.52615 23.0228 9.43754 23.0957 9.36369C23.1686 9.28985 23.2548 9.23077 23.3496 9.19138C23.4455 9.152 23.5475 9.13231 23.6508 9.13354H26.5927C26.696 9.13354 26.7968 9.152 26.8927 9.19262C26.9875 9.232 27.0737 9.29108 27.1454 9.36492C27.2171 9.43877 27.2741 9.52738 27.3106 9.62461C27.3482 9.72185 27.3652 9.82523 27.3628 9.92862V18.8948H27.3604Z" fill="#0075FF"/>
<path d="M93.0168 18.8554C94.5194 18.8554 95.2409 18.2178 95.7571 17.0978L96.973 14.3102C97.1285 13.9532 97.3811 13.6492 97.7006 13.4326C98.02 13.216 98.3941 13.0966 98.7792 13.0868H101.15C101.822 13.0868 101.903 13.6197 101.591 14.3102L99.9623 17.9766C99.423 19.1458 98.3893 20.0788 97.2791 20.3163C98.3431 20.6363 99.1922 21.3822 99.9623 22.6597L102.109 26.2215C102.519 26.9169 102.342 27.4486 101.668 27.4486H99.2954C98.4682 27.4486 97.7722 26.9169 97.3532 26.2215L95.7498 23.5323C95.0575 22.3668 94.1732 21.8055 93.0095 21.8055V26.6474C93.0132 26.752 92.9949 26.8554 92.9585 26.9526C92.9208 27.0498 92.865 27.1385 92.7933 27.2135C92.7216 27.2886 92.6354 27.3477 92.5407 27.3883C92.4459 27.4289 92.3439 27.4486 92.2406 27.4486H89.306C89.2027 27.4486 89.1007 27.4289 89.0048 27.3895C88.91 27.3489 88.8226 27.2899 88.7509 27.216C88.6792 27.1409 88.6221 27.0523 88.5845 26.9551C88.5468 26.8578 88.5286 26.7532 88.531 26.6486V9.84369C88.5286 9.73908 88.5468 9.63569 88.5845 9.53846C88.6221 9.44123 88.6792 9.35262 88.7521 9.27877C88.825 9.20493 88.9112 9.14585 89.006 9.10523C89.1019 9.06585 89.204 9.04616 89.3072 9.04739H92.2491C92.3524 9.04739 92.4544 9.06585 92.5492 9.10646C92.6439 9.14585 92.7301 9.20493 92.8018 9.28C92.8735 9.35385 92.9306 9.44246 92.967 9.53969C93.0047 9.63693 93.0217 9.74031 93.018 9.84493V18.8566L93.0168 18.8554Z" fill="#0075FF"/>
<path d="M105.261 27.4498C105.154 27.4498 105.047 27.4289 104.949 27.3871C104.85 27.3452 104.76 27.2837 104.685 27.2061C104.61 27.1286 104.55 27.0375 104.51 26.9366C104.47 26.8357 104.45 26.7286 104.452 26.6203V13.8511C104.45 13.7428 104.47 13.6345 104.51 13.5348C104.55 13.4351 104.61 13.3428 104.685 13.2652C104.76 13.1877 104.85 13.1274 104.949 13.0855C105.047 13.0437 105.154 13.0228 105.261 13.0228H108.195C108.302 13.0215 108.409 13.0412 108.509 13.0818C108.608 13.1225 108.699 13.184 108.775 13.2615C108.85 13.3391 108.91 13.4314 108.95 13.5323C108.99 13.6332 109.008 13.7428 109.004 13.8511V26.6203C109.008 26.7286 108.989 26.8381 108.95 26.9391C108.91 27.04 108.851 27.1323 108.775 27.2098C108.699 27.2874 108.608 27.3489 108.509 27.3895C108.409 27.4301 108.302 27.4511 108.195 27.4486H105.261V27.4498Z" fill="#0075FF"/>
<path d="M17.4718 15.8892C17.4718 16.2818 16.7308 23.0818 16.3798 26.4061C16.2778 27.3871 15.3012 27.4511 15.0388 27.4511H3.75454C2.57996 27.4511 2.16211 26.9292 2.04794 26.3064C1.92768 25.6529 1.30456 19.2591 0.993604 17.0326L0.885498 15.9261C0.885498 15.3748 1.26812 14.9009 1.80014 14.9009H16.4988C16.6276 14.9009 16.7551 14.9268 16.8742 14.9772C16.9932 15.0277 17.1013 15.1003 17.1912 15.1926C17.2823 15.2849 17.3527 15.3944 17.4013 15.5151C17.4499 15.6357 17.473 15.7649 17.4718 15.8941V15.888V15.8892Z" fill="url(#paint0_linear_3_169)"/>
<path d="M17.4803 9.13713H12.8038C12.8366 7.9679 13.3747 7.6159 14.474 6.90697L17.0637 5.22697C17.4123 5.01528 17.7038 4.71743 17.9103 4.36297C18.1168 4.00851 18.2322 3.60605 18.2467 3.19497V0.696512C18.2467 -0.0136424 17.739 -0.203181 17.0746 0.231281L13.6395 2.47497C12.4115 3.28359 11.6972 4.18328 11.3741 5.2922C11.1555 4.12543 10.2652 3.03251 9.14159 2.45774L5.74416 0.735896C5.07731 0.408511 4.56958 0.489742 4.56472 1.1962L4.55622 3.69467C4.55865 4.09097 4.66918 4.47867 4.87689 4.8159C5.08338 5.15313 5.37855 5.42513 5.72837 5.60236L8.28282 6.88359C9.33594 7.42143 9.94327 7.62451 9.96635 9.1359H0.760382C0.660779 9.1359 0.562391 9.15436 0.470076 9.19251C0.377762 9.23067 0.29395 9.28728 0.223499 9.35743C0.153048 9.42882 0.0971734 9.51251 0.058304 9.60605C0.0194347 9.69959 0 9.79928 0 9.9002V12.9488C0 13.0497 0.0206494 13.1482 0.0595187 13.2417C0.0983881 13.334 0.154263 13.419 0.224714 13.4891C0.295164 13.5593 0.378976 13.6159 0.471291 13.6541C0.563606 13.6922 0.661994 13.7107 0.760382 13.7107H17.4803C17.5799 13.7119 17.6783 13.6934 17.7718 13.6553C17.8641 13.6171 17.9491 13.5617 18.0196 13.4916C18.0913 13.4214 18.1471 13.3365 18.186 13.2442C18.2249 13.1507 18.2455 13.051 18.2455 12.9501V9.90143C18.2455 9.80051 18.2249 9.70082 18.186 9.60728C18.1471 9.51374 18.0913 9.43005 18.0196 9.35867C17.9479 9.28728 17.8641 9.2319 17.7718 9.19374C17.6795 9.15559 17.5799 9.13713 17.4803 9.13836V9.13713Z" fill="url(#paint1_linear_3_169)"/>
<path opacity="0.4" d="M17.4803 9.13713H12.8038C12.8366 7.9679 13.3747 7.6159 14.474 6.90697L17.0637 5.22697C17.4123 5.01528 17.7038 4.71743 17.9103 4.36297C18.1168 4.00851 18.2322 3.60605 18.2467 3.19497V0.696512C18.2467 -0.0136424 17.739 -0.203181 17.0746 0.231281L13.6395 2.47497C12.4115 3.28359 11.6972 4.18328 11.3741 5.2922C11.1555 4.12543 10.2652 3.03251 9.14159 2.45774L5.74416 0.735896C5.07731 0.408511 4.56958 0.489742 4.56472 1.1962L4.55622 3.69467C4.55865 4.09097 4.66918 4.47867 4.87689 4.8159C5.08338 5.15313 5.37855 5.42513 5.72837 5.60236L8.28282 6.88359C9.33594 7.42143 9.94327 7.62451 9.96635 9.1359H0.760382C0.660779 9.1359 0.562391 9.15436 0.470076 9.19251C0.377762 9.23067 0.29395 9.28728 0.223499 9.35743C0.153048 9.42882 0.0971734 9.51251 0.058304 9.60605C0.0194347 9.69959 0 9.79928 0 9.9002V12.9488C0 13.0497 0.0206494 13.1482 0.0595187 13.2417C0.0983881 13.334 0.154263 13.419 0.224714 13.4891C0.295164 13.5593 0.378976 13.6159 0.471291 13.6541C0.563606 13.6922 0.661994 13.7107 0.760382 13.7107H17.4803C17.5799 13.7119 17.6783 13.6934 17.7718 13.6553C17.8641 13.6171 17.9491 13.5617 18.0196 13.4916C18.0913 13.4214 18.1471 13.3365 18.186 13.2442C18.2249 13.1507 18.2455 13.051 18.2455 12.9501V9.90143C18.2455 9.80051 18.2249 9.70082 18.186 9.60728C18.1471 9.51374 18.0913 9.43005 18.0196 9.35867C17.9479 9.28728 17.8641 9.2319 17.7718 9.19374C17.6795 9.15559 17.5799 9.13713 17.4803 9.13836V9.13713Z" fill="url(#paint2_linear_3_169)" fill-opacity="0.5"/>
<path d="M119.702 13.0609C117.543 13.0609 115.842 14.0886 114.826 15.6837V13.0412H113.201V32H114.826V25.1803C115.842 26.7495 117.569 27.728 119.702 27.728C123.46 27.728 126.025 24.8197 126.025 20.3938C126.025 15.968 123.46 13.0597 119.702 13.0597V13.0609ZM114.826 23.0966V17.6923C115.639 15.6849 117.392 14.5009 119.448 14.5009C122.419 14.5009 124.375 16.8172 124.375 20.3938C124.375 23.9705 122.419 26.2868 119.448 26.2868C117.39 26.2868 115.639 25.0769 114.826 23.0954V23.0966Z" fill="#0075FF"/>
<path d="M137.987 27.5015H139.575V18.4652C139.575 15.0941 137.392 13.0609 133.887 13.0609C130.381 13.0609 128.274 14.8886 128.071 17.8991H129.722C129.849 15.7378 131.423 14.4246 133.836 14.4246C136.401 14.4246 137.95 15.9434 137.95 18.4135V19.1335H134.546C130.686 19.1335 128.502 20.8061 128.502 23.7145C128.502 26.2621 130.229 27.7292 132.896 27.7292C135.308 27.7292 137.01 26.5969 137.975 24.6671L137.986 27.5015H137.987ZM130.154 23.6628C130.154 21.6554 131.703 20.4972 134.471 20.4972H137.95V22.9157C136.883 25.0511 135.233 26.2868 133.098 26.2868C131.27 26.2868 130.153 25.36 130.153 23.6615L130.154 23.6628Z" fill="#0075FF"/>
<path d="M146.823 21.6037L143.394 13.0597H141.667L147.229 26.8788L146.847 27.8572C145.984 29.9422 145.348 30.6363 144.13 30.6363H141.844V32H144.156C145.984 32 147.051 31.3822 148.092 28.8345L154.492 13.0597H152.791L149.387 21.6037L148.092 25.0265L146.823 21.6037Z" fill="#0075FF"/>
<path d="M159 25.1963C159.004 25.6455 158.875 26.0849 158.631 26.4591C158.387 26.8332 158.039 27.1261 157.631 27.3009C157.223 27.4745 156.772 27.5225 156.337 27.4363C155.903 27.3514 155.503 27.136 155.188 26.8197C154.874 26.5034 154.66 26.0997 154.573 25.6591C154.485 25.2185 154.529 24.7631 154.698 24.3483C154.866 23.9335 155.153 23.5791 155.522 23.3292C155.89 23.0794 156.324 22.9465 156.766 22.9477C157.059 22.944 157.35 22.9994 157.621 23.1114C157.893 23.2234 158.14 23.3883 158.348 23.5975C158.555 23.8068 158.721 24.0566 158.832 24.3311C158.944 24.6055 159.001 24.8997 158.999 25.1975L159 25.1963ZM158.581 25.1963C158.58 24.8308 158.472 24.4751 158.271 24.1723C158.07 23.8695 157.785 23.6332 157.451 23.4954C157.118 23.3563 156.752 23.3206 156.398 23.3932C156.045 23.4658 155.72 23.6418 155.467 23.9003C155.213 24.1588 155.039 24.4886 154.97 24.8468C154.9 25.2049 154.937 25.5766 155.075 25.9126C155.214 26.2498 155.448 26.5378 155.747 26.7397C156.047 26.9415 156.399 27.0498 156.76 27.0498C157.001 27.0535 157.24 27.008 157.463 26.9157C157.687 26.8234 157.89 26.6868 158.06 26.5145C158.23 26.3421 158.365 26.1366 158.455 25.9101C158.546 25.6837 158.589 25.4412 158.586 25.1975H158.58L158.581 25.1963ZM156.967 24.0652C157.386 24.0652 157.722 24.3089 157.722 24.7409C157.727 24.8898 157.682 25.0375 157.596 25.1581C157.508 25.2788 157.384 25.3661 157.242 25.4068L157.791 26.3274H157.289L156.786 25.4412H156.396V26.3274H155.971V24.0665H156.969L156.967 24.0652ZM156.395 25.1151H156.874C157.103 25.1151 157.275 24.9981 157.275 24.7643C157.275 24.5305 157.116 24.4271 156.874 24.4271H156.395V25.1151Z" fill="#0075FF"/>
</g>
<defs>
<linearGradient id="paint0_linear_3_169" x1="5.65185" y1="13.5729" x2="14.5299" y2="29.316" gradientUnits="userSpaceOnUse">
<stop stop-color="#25A2FA"/>
<stop offset="0.48" stop-color="#0075FF"/>
<stop offset="1" stop-color="#3F58EA"/>
</linearGradient>
<linearGradient id="paint1_linear_3_169" x1="16.6993" y1="13.9224" x2="1.34068" y2="-0.159005" gradientUnits="userSpaceOnUse">
<stop stop-color="#00BBE9"/>
<stop offset="0.1" stop-color="#01C3DC"/>
<stop offset="0.18" stop-color="#02CDCE"/>
<stop offset="0.24" stop-color="#09D1C0"/>
<stop offset="0.37" stop-color="#1BDD9A"/>
<stop offset="0.55" stop-color="#38EF5F"/>
<stop offset="0.59" stop-color="#3FF350"/>
<stop offset="0.67" stop-color="#4BF550"/>
<stop offset="0.82" stop-color="#69F950"/>
<stop offset="1" stop-color="#95FF4F"/>
</linearGradient>
<linearGradient id="paint2_linear_3_169" x1="0.636485" y1="14.1611" x2="19.4585" y2="2.08978" gradientUnits="userSpaceOnUse">
<stop stop-color="#01BDE6" stop-opacity="0"/>
<stop offset="0.1" stop-color="#06BEE2" stop-opacity="0.02"/>
<stop offset="0.23" stop-color="#14C2D7" stop-opacity="0.08"/>
<stop offset="0.36" stop-color="#2AC8C4" stop-opacity="0.17"/>
<stop offset="0.51" stop-color="#4AD0AA" stop-opacity="0.31"/>
<stop offset="0.65" stop-color="#73DB88" stop-opacity="0.48"/>
<stop offset="0.81" stop-color="#A5E85F" stop-opacity="0.69"/>
<stop offset="1" stop-color="#EEFB24"/>
</linearGradient>
<clipPath id="clip0_3_169">
<rect width="159" height="32" fill="white"/>
</clipPath>
</defs>
</svg>
