<svg width="24" height="24" viewBox="0 0 24 24" fill="none" xmlns="http://www.w3.org/2000/svg">
  <path d="M12 22C6.477 22 2 17.523 2 12C2 6.477 6.477 2 12 2C17.523 2 22 6.477 22 12C22 17.523 17.523 22 12 22ZM12 20C16.418 20 20 16.418 20 12C20 7.582 16.418 4 12 4C7.582 4 4 7.582 4 12C4 16.418 7.582 20 12 20ZM11 15H13V17H11V15ZM13 13.355C14.021 12.884 15 11.732 15 10.5C15 8.567 13.433 7 11.5 7C9.567 7 8 8.567 8 10.5H10C10 9.672 10.672 9 11.5 9C12.328 9 13 9.672 13 10.5C13 11.328 12.328 12 11.5 12C11.224 12 11 12.224 11 12.5V14H13V13.355Z" fill="currentColor"/>
</svg>