<svg width="24" height="24" viewBox="0 0 24 24" fill="none" xmlns="http://www.w3.org/2000/svg">
<path fill-rule="evenodd" clip-rule="evenodd" d="M3.09265 4.70429C3.34364 3.70267 4.24569 3 5.28055 3H18.7195C19.7543 3 20.6564 3.70267 20.9073 4.70429L21.6433 7.64121C22.0118 9.11172 21.3951 10.5516 20.2692 11.3529V18.75C20.2692 19.9926 19.2595 21 18.0139 21H5.98605C4.74052 21 3.73082 19.9926 3.73082 18.75V11.3529C2.60489 10.5516 1.98823 9.11172 2.35672 7.64121L3.09265 4.70429ZM5.28055 4.5C4.9356 4.5 4.63491 4.73422 4.55125 5.0681L3.81531 8.00501C3.49774 9.27234 4.4585 10.5 5.76787 10.5C7.13388 10.5 8.24125 9.3952 8.24125 8.03236V4.5H5.28055ZM10.4965 19.5H13.5035V15.75C13.5035 15.3358 13.1669 15 12.7517 15H11.2483C10.8331 15 10.4965 15.3358 10.4965 15.75V19.5ZM15.007 19.5V15.75C15.007 14.5074 13.9973 13.5 12.7517 13.5H11.2483C10.0027 13.5 8.99303 14.5074 8.99303 15.75V19.5H5.98605C5.57088 19.5 5.23431 19.1642 5.23431 18.75V11.9603C5.40776 11.9864 5.58589 12 5.76787 12C7.06266 12 8.21293 11.3827 8.93909 10.4269C9.62073 11.3792 10.7377 12 12 12C13.2623 12 14.3793 11.3792 15.0609 10.4269C15.7871 11.3827 16.9373 12 18.2321 12C18.4141 12 18.5922 11.9864 18.7657 11.9603V18.75C18.7657 19.1642 18.4291 19.5 18.0139 19.5H15.007ZM9.74477 4.5V8.25C9.74477 9.49264 10.7545 10.5 12 10.5C13.2455 10.5 14.2552 9.49264 14.2552 8.25V4.5H9.74477ZM19.4488 5.0681C19.3651 4.73422 19.0644 4.5 18.7195 4.5H15.7588V8.03236C15.7588 9.3952 16.8661 10.5 18.2321 10.5C19.5415 10.5 20.5023 9.27234 20.1847 8.00501L19.4488 5.0681Z" fill="#141C22"/>
</svg>
